<svg xmlns="http://www.w3.org/2000/svg" width="400" height="500" viewBox="0 0 400 500">
  <rect width="400" height="500" fill="#d4a574"/>

  <!-- Leg shape -->
  <ellipse cx="200" cy="250" rx="120" ry="220" fill="#c4956a"/>

  <!-- Hair strands -->
  <g stroke="#2a1810" stroke-width="2" fill="none">
    <path d="M120 80 Q115 70 118 60"/>
    <path d="M150 70 Q148 58 152 50"/>
    <path d="M180 65 Q178 52 182 45"/>
    <path d="M210 62 Q212 50 208 42"/>
    <path d="M240 68 Q243 55 238 48"/>
    <path d="M270 75 Q275 62 270 55"/>

    <path d="M100 130 Q95 118 98 108"/>
    <path d="M130 120 Q126 106 132 98"/>
    <path d="M160 115 Q157 100 163 92"/>
    <path d="M190 110 Q188 95 194 88"/>
    <path d="M220 108 Q223 94 218 86"/>
    <path d="M250 112 Q255 98 250 90"/>
    <path d="M280 125 Q287 112 282 102"/>

    <path d="M90 180 Q84 165 90 155"/>
    <path d="M120 170 Q115 155 122 145"/>
    <path d="M150 165 Q146 148 154 140"/>
    <path d="M180 160 Q177 143 185 135"/>
    <path d="M210 158 Q214 142 208 134"/>
    <path d="M240 162 Q247 148 242 138"/>
    <path d="M270 168 Q278 155 273 145"/>
    <path d="M295 185 Q305 172 298 160"/>

    <path d="M85 235 Q78 220 86 208"/>
    <path d="M115 225 Q108 208 118 198"/>
    <path d="M145 218 Q140 200 150 190"/>
    <path d="M175 212 Q170 194 182 185"/>
    <path d="M205 210 Q210 192 202 183"/>
    <path d="M235 215 Q244 198 236 188"/>
    <path d="M265 222 Q276 206 268 195"/>
    <path d="M295 238 Q308 222 298 210"/>

    <path d="M90 290 Q82 273 92 262"/>
    <path d="M120 280 Q112 262 124 252"/>
    <path d="M150 272 Q143 253 156 243"/>
    <path d="M180 268 Q174 248 188 238"/>
    <path d="M210 265 Q217 246 206 236"/>
    <path d="M240 270 Q252 252 242 240"/>
    <path d="M270 278 Q284 260 274 248"/>
    <path d="M298 295 Q315 278 304 264"/>

    <path d="M95 348 Q86 330 98 318"/>
    <path d="M125 338 Q116 318 130 308"/>
    <path d="M155 330 Q147 309 162 298"/>
    <path d="M185 325 Q178 303 194 293"/>
    <path d="M215 322 Q224 302 212 291"/>
    <path d="M245 328 Q259 308 248 296"/>
    <path d="M275 338 Q292 318 280 305"/>

    <path d="M105 405 Q95 385 110 373"/>
    <path d="M135 395 Q124 374 142 362"/>
    <path d="M165 388 Q156 366 175 355"/>
    <path d="M195 384 Q188 361 208 350"/>
    <path d="M225 386 Q236 364 222 352"/>
    <path d="M255 392 Q272 372 258 358"/>
    <path d="M285 402 Q305 382 290 368"/>

    <path d="M120 458 Q108 438 128 425"/>
    <path d="M155 450 Q144 428 166 416"/>
    <path d="M190 445 Q180 422 205 410"/>
    <path d="M225 447 Q238 425 220 412"/>
    <path d="M260 455 Q280 434 262 420"/>
  </g>

  <!-- Text -->
  <text x="200" y="490" text-anchor="middle" font-family="monospace" font-size="14" fill="#333">PERNA CABELUDA</text>
</svg>
